<svg xmlns="http://www.w3.org/2000/svg"  viewBox="0 0 48 48" width="48px" height="48px"><path fill="#37474F" d="M22.483 27h-3.65c-.553 0-1-.447-1-1v-5c0-.54.429-.982.968-.999l5.167-.167c.428-.039.787.226.95.602.163.377.079.815-.211 1.105-.04.042-1.224 1.335-1.224 4.459C23.483 26.553 23.036 27 22.483 27zM42.569 16h-5.402v-4h5.402L45 13.199v1.585L42.569 16zM26 8H36V20H26zM20 40c0 1.104-.896 2-2 2H7c-1.104 0-2-.896-2-2v-3c0-1.104.896-2 2-2h11c1.104 0 2 .896 2 2V40z"/><g><path fill="#FF9800" d="M7 6c-1.104 0-4 3.582-4 8s2.896 8 4 8V6zM9.124 22.216c.223.268.295.866.179 1.488C9.165 24.447 7.615 31.147 6.684 35H17.32c-.372-.396-.446-.619-.313-1.025.883-2.692 2.576-9.728 2.576-9.738C19.607 24.177 20.514 22 22 22l-.717-1.167H7.78L8.497 22C8.945 22 9.075 22.157 9.124 22.216z"/></g><path fill="#78909C" d="M36,20V8l3,4v4L36,20z"/><path fill="#FFC107" d="M29,20c0,1.104-0.896,2-2,2H7V6h20c1.104,0,2,0.896,2,2V20z"/></svg>