<svg xmlns="http://www.w3.org/2000/svg"  viewBox="0 0 48 48" width="48px" height="48px"><path fill="#388E3C" d="M24,20L9,40c0,0,5,4,15,4s15-4,15-4L24,20z"/><path fill="#388E3C" d="M24,16L12,31c0,0,4,3,12,3s12-3,12-3L24,16z"/><path fill="#388E3C" d="M24,11l-9,12c0,0,3,2,9,2s9-2,9-2L24,11z"/><path fill="#FFCA28" d="M24 4L25.667 7.098 29 7.574 26.618 9.955 27.098 13.529 24 11.862 20.902 13.529 21.383 9.955 19 7.574 22.333 7.098z"/><g><path fill="#1B5E20" d="M34.528 34.038l-1.239-1.653C31.294 33.172 28.205 34 24 34c-4.206 0-7.294-.828-9.289-1.615l-1.239 1.653C15.658 34.966 19.175 36 24 36 28.825 36 32.342 34.966 34.528 34.038zM24 25c-2.824 0-4.975-.443-6.47-.913l-1.332 1.665C17.879 26.363 20.463 27 24 27s6.121-.637 7.802-1.248l-1.332-1.665C28.976 24.557 26.824 25 24 25zM24 11.862L22.916 12.446 20.06 16.254 21.85 15.291 24 14.133 26.15 15.291 27.94 16.254 25.084 12.446z"/></g><g><path fill="#18FFFF" d="M22.5 17A1.5 1.5 0 1 0 22.5 20 1.5 1.5 0 1 0 22.5 17zM27 20A1 1 0 1 0 27 22 1 1 0 1 0 27 20zM19 28A1 1 0 1 0 19 30 1 1 0 1 0 19 28zM23 31A1 1 0 1 0 23 33 1 1 0 1 0 23 31zM24 40A1 1 0 1 0 24 42 1 1 0 1 0 24 40zM32.5 38A1.5 1.5 0 1 0 32.5 41 1.5 1.5 0 1 0 32.5 38zM28 28.5A1.5 1.5 0 1 0 28 31.5 1.5 1.5 0 1 0 28 28.5zM17.5 37.5A1.5 1.5 0 1 0 17.5 40.5 1.5 1.5 0 1 0 17.5 37.5z"/></g></svg>