<svg xmlns="http://www.w3.org/2000/svg"  viewBox="0 0 48 48" width="48px" height="48px"><path fill="#BBDEFB" d="M33,41c0,0.553-0.447,1-1,1H16c-0.552,0-1-0.447-1-1v-5c0-0.553,0.448-1,1-1h16c0.553,0,1,0.447,1,1V41z"/><path fill="#BBDEFB" d="M36.937,6H11.063C6.747,9.668,4,15.128,4,21.238c0,11.047,8.954,20,20,20s20-8.953,20-20C44,15.128,41.254,9.668,36.937,6z"/><path fill="#1E88E5" d="M40.066,13.186C35.859,15.814,29.934,16.279,25,16c-5.74-0.325-9.16-2.896-14.944-3.219c-0.657-0.037-1.3-0.014-1.937,0.035C6.753,15.383,6,18.262,6,21.238c0,9.926,8.075,18,18,18c9.926,0,18-8.074,18-18C42,18.402,41.311,15.658,40.066,13.186z"/><path fill="#FFEB3B" d="M21.39,24c-3.5,0-6.223,2.722-6.223,2.722L14,27.502l1.167,0.834C16.732,29.452,18.674,31,21.39,31c2.722,0,6.61-2.723,6.61-3.888C28,25.944,24.111,24,21.39,24z"/><path fill="#FFEB3B" d="M11.937,24c0.438,0.438,0.875,2.481,0.875,3.5c0,1.012-0.438,3.063-0.875,3.5c1.313-0.438,2.713-1.867,3.049-2.568c0.005,0.003,0.514-0.93,0.514-0.93L15,26.625C15,26.625,14.125,24.875,11.937,24z"/><path fill="#37474F" d="M24.538 25.462A0.77 0.77 0 1 0 24.538 27.002A0.77 0.77 0 1 0 24.538 25.462Z"/><path fill="#90CAF9" d="M33 18.002A2 2 0 1 0 33 22.002A2 2 0 1 0 33 18.002Z"/><g><path fill="#64B5F6" d="M31 23.002A1 1 0 1 0 31 25.002 1 1 0 1 0 31 23.002zM27.5 18A1.5 1.5 0 1 0 27.5 21 1.5 1.5 0 1 0 27.5 18z"/></g></svg>