<svg xmlns="http://www.w3.org/2000/svg"  viewBox="0 0 48 48" width="48px" height="48px"><polygon fill="#c5cae9" points="42,4 42,42 39,44 36,42 33,44 30,42 27,44 24,42 21,44 18,42 15,44 12,42 12,4 15,6 18,4 21,6 24,4 27,6 30,4 33,6 36,4 39,6"/><rect width="13" height="2" x="15" y="15" fill="#7986cb"/><rect width="4" height="2" x="35" y="15" fill="#7986cb"/><rect width="11" height="2" x="15" y="19" fill="#7986cb"/><rect width="4" height="2" x="35" y="19" fill="#7986cb"/><rect width="12" height="2" x="15" y="23" fill="#7986cb"/><rect width="4" height="2" x="35" y="23" fill="#7986cb"/><rect width="14" height="2" x="15" y="27" fill="#7986cb"/><rect width="4" height="2" x="35" y="27" fill="#7986cb"/><rect width="8" height="2" x="15" y="31" fill="#7986cb"/><rect width="4" height="2" x="35" y="31" fill="#7986cb"/><rect width="19" height="2" x="15" y="10" fill="#7986cb"/><rect width="4" height="2" x="35" y="37" fill="#7986cb"/><rect width="9" height="2" x="23" y="37" fill="#7986cb"/><path fill="#9fa8da" d="M21.73,17H15v-2h4.92C20.59,15.6,21.2,16.27,21.73,17z"/><path fill="#9fa8da" d="M23.62,21H15v-2h7.9C23.2,19.64,23.44,20.31,23.62,21z"/><path fill="#9fa8da" d="M24,24c0,0.34-0.01,0.67-0.05,1H15v-2h8.95C23.99,23.33,24,23.66,24,24z"/><path fill="#9fa8da" d="M23.62,27c-0.18,0.69-0.42,1.36-0.72,2H15v-2H23.62z"/><path fill="#9fa8da" d="M21.73,31c-0.53,0.73-1.14,1.4-1.81,2H15v-2H21.73z"/><path fill="#388e3c" d="M22,24c0,5.5-4.5,10-10,10S2,29.5,2,24s4.5-10,10-10S22,18.5,22,24"/><path fill="#e8f5e9" d="M15.4,26.5c0,2.5-2.4,2.8-2.8,2.8v1.4h-1v-1.4c-0.4,0-3-0.3-3-3.3h2c0,0.3,0,1.7,1.5,1.7 c1.3,0,1.3-1,1.3-1.2c0-2.2-4.5-1.3-4.5-4.8c0-2.1,1.9-2.8,2.8-2.8v-1.5h1.1v1.5c0.7,0.1,2.6,0.6,2.6,3.2h-2c0-0.6-0.1-1.7-1.3-1.7 C11,20.5,11,21.5,11,21.7C11,23.8,15.4,23,15.4,26.5"/></svg>