<svg xmlns="http://www.w3.org/2000/svg"  viewBox="0 0 48 48" width="48px" height="48px"><path fill="#455a64" d="M8 39H14V42H8zM34 39H40V42H34z"/><path fill="#78909c" d="M40,41H8c-2.209,0-4-1.791-4-4V11c0-2.209,1.791-4,4-4h32c2.209,0,4,1.791,4,4v26C44,39.209,42.209,41,40,41z"/><path fill="#607d8b" d="M40,41H30V7h10c2.209,0,4,1.791,4,4v26C44,39.209,42.209,41,40,41z"/><path fill="#37474f" d="M40,38H8c-0.552,0-1-0.448-1-1V11c0-0.552,0.448-1,1-1h32c0.552,0,1,0.448,1,1v26C41,37.552,40.552,38,40,38z"/><path fill="#90a4ae" d="M40.263,38.201L30,41V7l10.263,2.799C40.698,9.918,41,10.313,41,10.764v26.472C41,37.687,40.698,38.082,40.263,38.201z"/><path fill="#cfd8dc" d="M27 7H30V41H27z"/><path fill="#37474f" d="M37.636,33.734C37.477,33.908,37.312,34,37.143,34C35.959,34,35,29.523,35,24c0-5.523,0.959-10,2.143-10c0.123,0,0.243,0.048,0.36,0.141C38.033,14.56,39.5,17,39.5,17v14C39.5,31,38.11,33.211,37.636,33.734z"/><path fill="#fff" d="M39.5 17A1.5 7 0 1 0 39.5 31A1.5 7 0 1 0 39.5 17Z"/><path fill="#b0bec5" d="M36.931 25H37.5c-.041-.328-.069-.661-.069-1s.028-.672.069-1h-.569c-.552 0-1 .448-1 1S36.379 25 36.931 25zM37.027 18.766l.542.173c.043-.27.099-.538.184-.804s.195-.517.316-.762L37.527 17.2c-.526-.168-1.065.046-1.203.479C36.187 18.111 36.501 18.598 37.027 18.766zM37.027 29.234l.542-.173c.043.27.099.538.184.804s.195.517.316.762L37.527 30.8c-.526.168-1.065-.046-1.203-.479C36.187 29.889 36.501 29.402 37.027 29.234z"/><path fill="#4caf50" d="M10 21H18V27H10z"/><path fill="#4caf50" d="M25 24L17 32 17 16z"/></svg>