<svg xmlns="http://www.w3.org/2000/svg"  viewBox="0 0 48 48" width="48px" height="48px"><path fill="#fab13b" d="M16 36H0l.333-1 11.946-8c.43 0 .813.275.949.684L16 36zM32 36H16l.333-1 11.946-8c.43 0 .813.275.949.684L32 36zM48 36H32l.333-1 11.946-8c.43 0 .813.275.949.684L48 36zM40 27H24l.333-1 11.946-8c.43 0 .813.275.949.684L40 27zM32 18H16l.333-1 11.946-8c.43 0 .813.275.949.684L32 18zM24 27H8l.333-1 11.946-8c.43 0 .813.275.949.684L24 27z"/><g><path fill="#ffd54f" d="M13.17 27.54L0 36l2.77-8.32C2.91 27.28 3.29 27 3.72 27h8.56C12.66 27 12.99 27.21 13.17 27.54zM29.17 27.54L16 36l2.77-8.32c.14-.4.52-.68.95-.68h8.56C28.66 27 28.99 27.21 29.17 27.54zM45.17 27.54L32 36l2.77-8.32c.14-.4.52-.68.95-.68h8.56C44.66 27 44.99 27.21 45.17 27.54zM37.17 18.54L24 27l2.77-8.32c.14-.4.52-.68.95-.68h8.56C36.66 18 36.99 18.21 37.17 18.54zM29.17 9.54L16 18l2.77-8.32C18.91 9.28 19.29 9 19.72 9h8.56C28.66 9 28.99 9.21 29.17 9.54zM21.17 18.54L8 27l2.77-8.32c.14-.4.52-.68.95-.68h8.56C20.66 18 20.99 18.21 21.17 18.54z"/></g></svg>