<svg xmlns="http://www.w3.org/2000/svg"  viewBox="0 0 48 48" width="48px" height="48px"><path fill="#9fa8da" d="M39 12H9c-1.7 0-3-1.3-3-3l0 0c0-1.7 1.3-3 3-3h30c1.7 0 3 1.3 3 3l0 0C42 10.7 40.7 12 39 12zM39 42H9c-1.7 0-3-1.3-3-3l0 0c0-1.7 1.3-3 3-3h30c1.7 0 3 1.3 3 3l0 0C42 40.7 40.7 42 39 42zM39 27H9c-1.7 0-3-1.3-3-3l0 0c0-1.7 1.3-3 3-3h30c1.7 0 3 1.3 3 3l0 0C42 25.7 40.7 27 39 27z"/><path fill="#9fa8da" d="M8 11H40V37H8z"/><path fill="#7986cb" d="M40 34L37 34 34 28 32 28 30 28 27 34 24 34 22 42 32 42 42 42z"/><path fill="#263238" d="M30,26c0,3.3-2.7,6-6,6s-6-2.7-6-6s6-10.5,6-10.5S30,22.7,30,26z"/><path fill="#ffc107" d="M48,42l-1.68-5.559C46.229,36.176,45.989,36,45.72,36h-5.44c-0.269,0-0.509,0.176-0.599,0.441L38,42 H48z"/><path fill="#ffd740" d="M45.72,36h-5.44c-0.269,0-0.509,0.176-0.6,0.441L38,42l8.217-5.748C46.098,36.096,45.917,36,45.72,36 z"/><path fill="#ffc107" d="M43,36l-1.68-5.559C41.229,30.176,40.989,30,40.72,30h-5.44c-0.269,0-0.509,0.176-0.599,0.441L33,36 H43z"/><path fill="#ffd740" d="M40.72,30h-5.44c-0.269,0-0.509,0.176-0.6,0.441L33,36l8.217-5.748C41.098,30.096,40.917,30,40.72,30 z"/><path fill="#ffc107" d="M33,36l-1.68-5.559C31.229,30.176,30.989,30,30.72,30h-5.44c-0.269,0-0.509,0.176-0.599,0.441L23,36 H33z"/><path fill="#ffd740" d="M30.72,30h-5.44c-0.269,0-0.509,0.176-0.6,0.441L23,36l8.217-5.748C31.098,30.096,30.917,30,30.72,30 z"/><path fill="#ffc107" d="M38,30l-1.68-5.559C36.229,24.176,35.989,24,35.72,24h-5.44c-0.269,0-0.509,0.176-0.599,0.441L28,30 H38z"/><path fill="#ffd740" d="M35.72,24h-5.44c-0.269,0-0.509,0.176-0.6,0.441L28,30l8.217-5.748C36.098,24.096,35.917,24,35.72,24 z"/><path fill="#ffc107" d="M38,42l-1.68-5.559C36.229,36.176,35.989,36,35.72,36h-5.44c-0.269,0-0.509,0.176-0.599,0.441L28,42 H38z"/><path fill="#ffd740" d="M35.72,36h-5.44c-0.269,0-0.509,0.176-0.6,0.441L28,42l8.217-5.748C36.098,36.096,35.917,36,35.72,36 z"/><path fill="#ffc107" d="M28,42l-1.68-5.559C26.229,36.176,25.989,36,25.72,36h-5.44c-0.269,0-0.509,0.176-0.599,0.441L18,42 H28z"/><path fill="#ffd740" d="M25.72,36h-5.44c-0.269,0-0.509,0.176-0.6,0.441L18,42l8.217-5.748C26.098,36.096,25.917,36,25.72,36 z"/></svg>