<svg xmlns="http://www.w3.org/2000/svg"  viewBox="0 0 48 48" width="48px" height="48px"><path fill="#9fa8da" d="M45,36c0,0.6-0.4,1-1,1H4c-0.6,0-1-0.4-1-1V12c0-0.6,0.4-1,1-1h40c0.6,0,1,0.4,1,1V36z"/><path fill="#e8eaf6" d="M5,15h38v20H5V15z"/><path fill="#3f51b5" d="M8 18h18v2H8V18zM8 22h12v2H8V22z"/><path fill="#43a047" d="M38.1,25.5c-0.3-0.3-0.6-0.5-1.1-0.7c-1-0.5-3.7-0.8-3.7-2.3c0-0.4,0.1-0.7,0.4-0.9 c0.2-0.2,0.9-0.3,1.3-0.3c0.4,0,1,0.1,1.3,0.4c0.3,0.3,0.4,0.7,0.4,1.3H39c0-1-0.3-1.7-0.8-2.3c-0.5-0.6-1.3-0.9-2.2-1.1V18h-2v1.7 c-0.8,0.1-1.7,0.4-2.1,0.8c-0.6,0.5-0.9,1.2-0.9,2c0,0.5,0.1,0.9,0.3,1.2c0.2,0.3,0.4,0.7,0.7,0.9s0.7,0.5,1.1,0.7s0.9,0.4,1.5,0.6 c0.6,0.2,1.5,0.4,1.7,0.7c0.2,0.2,0.4,0.6,0.4,1c0,0.4-0.1,0.7-0.4,0.9c-0.3,0.2-0.7,0.3-1.1,0.3c-0.6,0-1-0.2-1.3-0.5 s-0.5-0.8-0.5-1.4H31c0,1,0.3,1.9,0.9,2.5c0.5,0.5,1.2,0.8,2.1,1V32h2v-1.5c0.9-0.1,1.6-0.4,2.1-0.9c0.6-0.5,0.9-1.2,0.9-2 c0-0.4-0.1-0.8-0.2-1.2S38.4,25.8,38.1,25.5z"/><path fill="#3f51b5" d="M13.4,32c-0.5,0-0.8-0.2-1.1-0.5c-0.2-0.2-0.3-0.5-0.3-1c0-0.5,0.2-1.1,0.5-1.6 c-0.1-0.1-0.1-0.2-0.2-0.3c-0.3-0.3-0.6-0.5-0.8-0.5c-0.9,0-1.6,1.2-1.6,1.2l-1.8-0.9c0-0.1,1.2-2.3,3.3-2.3c0.9,0,1.7,0.5,2.3,1.3 c0.5-0.4,1-0.6,1.6-0.6c0.8,0,1.4,0.4,1.9,1c0.4-0.3,0.9-0.4,1.3-0.4c1.1,0,1.7,0.8,2.1,1.4c0,0,0.1,0.1,0.1,0.2 c0.1-0.1,0.2-0.1,0.2-0.2c0.5-0.3,1.2-0.8,2-0.8v2c-0.2,0-0.6,0.3-0.9,0.5c-0.4,0.3-0.9,0.7-1.5,0.7c-0.8,0-1.3-0.7-1.6-1.1 c-0.1-0.2-0.4-0.5-0.5-0.6c-0.1,0-0.2,0.1-0.3,0.2c0,0.2,0.1,0.4,0.1,0.5c0,0.4-0.1,0.7-0.3,1c-0.3,0.3-0.7,0.5-1.1,0.5 c-0.5,0-0.8-0.2-0.9-0.3c-0.3-0.2-0.4-0.6-0.4-1c0-0.3,0.1-0.7,0.4-1.1c0-0.1-0.1-0.1-0.1-0.2c-0.2-0.2-0.3-0.2-0.4-0.2 c-0.2,0-0.4,0.2-0.6,0.4c0.1,0.4,0.2,0.8,0.2,1.2c0,0.4-0.1,0.8-0.3,1.1C14.4,31.8,13.9,32,13.4,32z"/></svg>