<svg xmlns="http://www.w3.org/2000/svg"  viewBox="0 0 48 48" width="48px" height="48px"><path fill="#64B5F6" d="M42,24c0,2.209-1.791,4-4,4H15c-2.209,0-4-1.791-4-4V10c0-2.209,1.791-4,4-4h23c2.209,0,4,1.791,4,4V24z"/><path fill="#37474F" d="M11 11H42V15H11z"/><path fill="#E3F2FD" d="M13 17H40V21H13z"/><path fill="#3F51B5" d="M37,38c0,2.209-1.791,4-4,4H10c-2.209,0-4-1.791-4-4V24c0-2.209,1.791-4,4-4h23c2.209,0,4,1.791,4,4V38z"/><path fill="#FFC107" d="M34 30c0 .553-.447 1-1 1h-5c-.553 0-1-.447-1-1v-4c0-.553.447-1 1-1h5c.553 0 1 .447 1 1V30zM8 36H13V38H8zM15 36H20V38H15zM22 36H27V38H22zM29 36H34V38H29z"/></svg>