<svg xmlns="http://www.w3.org/2000/svg"  viewBox="0 0 48 48" width="48px" height="48px"><path fill="#e89531" d="M33 36L20 41 15 39 15 32 20 37 33 32z"/><path fill="#e89531" d="M22.1,37.9l2.1-4.6l-7.7-3.6c-1.3-0.6-2.7,0-3.3,1.2c-0.6,1.3,0,2.8,1.2,3.3L22.1,37.9z"/><path fill="#e89531" d="M17.5,38.3l2.1-4.6l-7.7-3.6c-1.3-0.6-2.7,0-3.3,1.2c-0.6,1.3,0,2.8,1.2,3.3L17.5,38.3z"/><path fill="#ffb74d" d="M4.2,32.6c0.5-1.3,2-1.9,3.3-1.3l8,3.5c-0.1,0.8,0.1,1.6,0.3,2.3c1.3,3.4,4.6,3.1,6.1,2.5l9.3-3.6 l0,0c0.3-0.1,0.5-0.3,0.6-0.6c0.2-0.5,0-1.1-0.5-1.3c-0.2-0.1-0.5-0.1-0.7,0l0,0h-0.1l0,0l-9.3,3.6c-0.3,0.1-2.7,1-3.6-1.3 c-0.1-0.2-0.1-0.4-0.2-0.6l0,0c-0.2-1.4,1-2.2,1.7-2.5L31,28.6c4-1.8,13,2.1,13,2.1l-3.4,8.4l-3.7-1.6l-13.1,5.3 c-0.7,0.3-1.5,0.3-2.2,0.1l0,0l0,0c-0.1,0-0.3-0.1-0.4-0.1L5.5,35.9C4.2,35.4,3.7,33.9,4.2,32.6z"/><path fill="#81c784" d="M5.079 5L18.123 25 34.875 14.074 28.957 5z"/><path fill="#1b5e20" d="M26.569 5L32.107 13.491 18.706 22.232 7.466 5 5.079 5 18.123 25 34.875 14.074 28.957 5z"/><path fill="#1b5e20" d="M18.852 19.04A2.5 2.5 0 1 0 18.852 24.04A2.5 2.5 0 1 0 18.852 19.04Z" transform="rotate(-33.112 18.853 21.54)"/><path fill="#a5d6a7" d="M4.458 5L26.417 26.958 39.958 13.417 31.542 5z"/><path fill="#388e3c" d="M28.448 13.533000000000001A1.915 1.915 0 1 0 28.448 17.363A1.915 1.915 0 1 0 28.448 13.533000000000001Z" transform="rotate(-45.001 28.448 15.448)"/><path fill="#388e3c" d="M25.313 25.687l3.374-3.374c-.112-.207-.245-.406-.419-.581-.976-.976-2.559-.976-3.536 0-.976.976-.976 2.559 0 3.536C24.907 25.443 25.106 25.575 25.313 25.687zM35.313 15.687l3.374-3.374c-.112-.207-.245-.406-.419-.581-.976-.976-2.559-.976-3.536 0-.976.976-.976 2.559 0 3.536C34.907 15.443 35.106 15.575 35.313 15.687zM16.116 5c-1.361 2.214-1.097 5.145.821 7.063 2.244 2.244 5.881 2.244 8.125 0C26.98 10.145 27.245 7.214 25.884 5H16.116z"/><path fill="#388e3c" d="M28.833 5L37.25 13.417 26.417 24.25 7.167 5 4.458 5 26.417 26.958 39.958 13.417 31.542 5z"/><path fill="#388e3c" d="M28.458 13.552999999999999A1.91 1.91 0 1 0 28.458 17.372999999999998A1.91 1.91 0 1 0 28.458 13.552999999999999Z" transform="rotate(-45.001 28.458 15.463)"/></svg>