<svg xmlns="http://www.w3.org/2000/svg"  viewBox="0 0 48 48" width="48px" height="48px"><path fill="#BBDEFB" d="M8.275 23H39.726V25H8.275zM42 9.812C42 7.697 40.258 6 38.145 6H9.811C7.697 6 6 7.697 6 9.812V20h36V9.812zM41.978 20H6v1.074C6 21.378 6.034 21.688 6.105 22h35.758c.074-.31.114-.621.114-.926V20z"/><path fill="#BBDEFB" d="M9.855 25.095l-1.607-2.862C8.088 21.912 8 21.567 8 21.263V20H6v1.263c0 .618.159 1.263.482 1.906l1.638 2.919C8.808 27.268 10.088 28 11.462 28H15v-2h-3.538C10.787 26 10.183 25.656 9.855 25.095zM40 20v1.263c0 .304-.088.649-.226.928l-1.622 2.89c-.316.541-.98.92-1.615.92H33v2h3.537c1.354 0 2.665-.75 3.352-1.927l1.652-2.948C41.842 22.522 42 21.879 42 21.263V20H40z"/><g><path fill="#1976D2" d="M24.041 30.667A1.417 1.417 0 1 0 24.041 33.501000000000005 1.417 1.417 0 1 0 24.041 30.667zM24.041 26.415999999999997A1.417 1.417 0 1 0 24.041 29.25 1.417 1.417 0 1 0 24.041 26.415999999999997zM30.416 26.415999999999997A1.417 1.417 0 1 0 30.416 29.25 1.417 1.417 0 1 0 30.416 26.415999999999997zM31.123 30.667A1.417 1.417 0 1 0 31.123 33.501000000000005 1.417 1.417 0 1 0 31.123 30.667zM32.54 34.917A1.417 1.417 0 1 0 32.54 37.751000000000005 1.417 1.417 0 1 0 32.54 34.917zM35.373 39.166A1.417 1.417 0 1 0 35.373 42 1.417 1.417 0 1 0 35.373 39.166zM17.666 26.415999999999997A1.417 1.417 0 1 0 17.666 29.25 1.417 1.417 0 1 0 17.666 26.415999999999997zM16.957 30.667A1.417 1.417 0 1 0 16.957 33.501000000000005 1.417 1.417 0 1 0 16.957 30.667zM15.541 34.917A1.417 1.417 0 1 0 15.541 37.751000000000005 1.417 1.417 0 1 0 15.541 34.917zM12.707 39.166A1.417 1.417 0 1 0 12.707 42 1.417 1.417 0 1 0 12.707 39.166zM24.041 34.917A1.417 1.417 0 1 0 24.041 37.751000000000005 1.417 1.417 0 1 0 24.041 34.917zM24.041 39.166A1.417 1.417 0 1 0 24.041 42 1.417 1.417 0 1 0 24.041 39.166z"/></g><g><path fill="#2196F3" d="M33.016 10H35V19H33.016z"/><path fill="#2196F3" d="M33.016 10H35V19H33.016z" transform="rotate(-59.675 34.007 14.5)"/><path fill="#2196F3" d="M33.015 10H34.999V19H33.015z" transform="scale(-1) rotate(60.256 24.987 -58.604)"/></g></svg>