<svg xmlns="http://www.w3.org/2000/svg"  viewBox="0 0 48 48" width="48px" height="48px"><rect width="2" height="4" x="23" y="10" fill="#546e7a"/><rect width="4" height="2" x="22" y="9" fill="#78909c"/><path fill="#ff3d00" d="M15,39c-1.657,0-3-1.343-3-3V20c0-4.5,3-6.5,5-7h14c2,0.5,5,2.5,5,7l0,0v16c0,1.657-1.343,3-3,3l0,0	l0,0c1.657,0,3,1.343,3,3v2H12v-2C12,40.343,13.343,39,15,39L15,39L15,39z"/><rect width="4" height="2" x="26" y="38" fill="#b71c1c"/><rect width="4" height="2" x="18" y="38" fill="#b71c1c"/><polygon fill="#ff3d00" points="32,15 30,15 30,7 18,7 18,15 16,15 16,4 32,4"/><rect width="12" height="3" x="18" y="4" fill="#b71c1c"/><path fill="#03a9f4" d="M19,28.13c0,2.706,2.239,4.87,5,4.87s5-2.07,5-4.87l0,0C29,23,23,20,23,20c0,4.2-4,4-4,8.1"/><path fill="#b3e5fc" d="M26,30c0,1.105-0.895,2-2,2s-2-0.895-2-2c0-2,2-4,2-4S26,28,26,30z"/></svg>