<svg xmlns="http://www.w3.org/2000/svg"  viewBox="0 0 48 48" width="48px" height="48px"><path fill="#7e57c2" d="M40,26H8c-0.552,0-1-0.448-1-1v-2c0-0.552,0.448-1,1-1h32c0.552,0,1,0.448,1,1v2 C41,25.552,40.552,26,40,26z"/><path fill="#7e57c2" d="M40,42H8c-0.552,0-1-0.448-1-1v-2c0-0.552,0.448-1,1-1h32c0.552,0,1,0.448,1,1v2 C41,41.552,40.552,42,40,42z"/><path fill="#f44336" d="M24.293,16.707c-2.595-2.595-2.979-5.436-1-7.414c1.56-1.56,0.043-3.543-1-4.586l1.414-1.414 c2.595,2.595,2.979,5.436,1,7.414c-1.56,1.56-0.043,3.543,1,4.586L24.293,16.707z"/><path fill="#f44336" d="M10.293,16.707c-2.595-2.595-2.979-5.436-1-7.414c1.56-1.56,0.043-3.543-1-4.586l1.414-1.414 c2.595,2.595,2.979,5.436,1,7.414c-1.56,1.56-0.043,3.543,1,4.586L10.293,16.707z"/><path fill="#f44336" d="M17.293,16.707c-2.595-2.595-2.979-5.436-1-7.414c1.56-1.56,0.043-3.543-1-4.586l1.414-1.414 c2.595,2.595,2.979,5.436,1,7.414c-1.56,1.56-0.043,3.543,1,4.586L17.293,16.707z"/><path fill="#f44336" d="M31.293,16.707c-2.595-2.595-2.979-5.436-1-7.414c1.56-1.56,0.043-3.543-1-4.586l1.414-1.414 c2.595,2.595,2.979,5.436,1,7.414c-1.56,1.56-0.043,3.543,1,4.586L31.293,16.707z"/><path fill="#f44336" d="M38.293,16.707c-2.595-2.595-2.979-5.436-1-7.414c1.56-1.56,0.043-3.543-1-4.586l1.414-1.414 c2.595,2.595,2.979,5.436,1,7.414c-1.56,1.56-0.043,3.543,1,4.586L38.293,16.707z"/><path fill="#d1c4e9" d="M15.03,22v20c0,1.64,2.97,3,2.97,3V19C18,19,15.03,20.36,15.03,22z"/><path fill="#d1c4e9" d="M9.03,22v20c0,1.64,2.97,3,2.97,3V19C12,19,9.03,20.36,9.03,22z"/><path fill="#d1c4e9" d="M27,22v20c0,1.64,2.97,3,2.97,3V19C29.97,19,27,20.36,27,22z"/><path fill="#d1c4e9" d="M21.03,22v20c0,1.64,2.97,3,2.97,3V19C24,19,21.03,20.36,21.03,22z"/><path fill="#b39ddb" d="M12.01,19H12v26h0.01c0,0,2.99-1.35,2.99-3V22C15,20.35,12.01,19,12.01,19z"/><path fill="#b39ddb" d="M18.01,19H18v26h0.01c0,0,2.99-1.35,2.99-3V22C21,20.35,18.01,19,18.01,19z"/><path fill="#b39ddb" d="M24.01,19H24v26h0.01c0,0,2.99-1.35,2.99-3V22C27,20.35,24.01,19,24.01,19z"/><path fill="#b39ddb" d="M29.99,19h-0.02v26h0.02c0,0,2.98-1.35,2.98-3V22C32.97,20.35,29.99,19,29.99,19z"/><path fill="#d1c4e9" d="M33,22v20c0,1.64,2.97,3,2.97,3V19C35.97,19,33,20.36,33,22z"/><path fill="#b39ddb" d="M35.99,19h-0.02v26h0.02c0,0,2.98-1.35,2.98-3V22C38.97,20.35,35.99,19,35.99,19z"/></svg>