<svg xmlns="http://www.w3.org/2000/svg"  viewBox="0 0 48 48" width="48px" height="48px"><path fill="#B2EBF2" d="M31,20v-5c0-1.205-1.594-4.885-4-6.803V6h-6v2.197c-2.407,1.918-4,5.598-4,6.803v5c0,1.656,2,2,2,3s-2,1.344-2,3v16c0,1.656,1.343,3,3,3h4h4c1.656,0,3-1.344,3-3V26c0-1.656-2-2-2-3S31,21.656,31,20z"/><path fill="#3F51B5" d="M27,4c0-0.553-0.447-1-1-1h-4c-0.552,0-1,0.447-1,1v4h6V4z"/><path fill="#4DD0E1" d="M31,28.002V26c0-1.656-2-2-2-3s2-1.344,2-3v-5c0-0.327-0.121-0.84-0.34-1.447c-0.28,0.172-0.579,0.324-0.906,0.447c-0.456,0.172-0.924,0.342-1.379,0.504c-0.795,0.282-1.543,0.309-2.382,0.309c-1.129,0-2.148-0.218-3.229-0.514c-1.21-0.332-2.458-0.797-3.712-0.909c-0.553-0.05-1.146,0.041-1.719,0.18C17.118,14.17,17,14.676,17,15v5c0,1.656,2,2,2,3s-2,1.344-2,3v16c0,1.656,1.343,3,3,3h4h4c1.656,0,3-1.344,3-3V28.002"/><path fill="#00BCD4" d="M31 36.793c-.307.171-1.651.79-1.933.896-.45.17-.912.338-1.36.497-.654.232-1.287.251-2.047.251-1.071 0-2.058-.229-2.965-.479-.302-.082-.606-.174-.912-.266-.954-.286-1.94-.582-2.975-.675-.534-.045-1.125.016-1.809.162v2.092c.102-.041.204-.082.303-.122.539-.127.973-.175 1.326-.14.833.074 1.681.329 2.579.599.321.096.641.191.958.279 1.042.285 2.187.549 3.494.549.888 0 1.764-.028 2.718-.366.46-.165.935-.337 1.394-.51.179-.067.711-.303 1.229-.543V36.793zM29.067 33.688c-.45.17-.912.338-1.36.497-.654.232-1.287.251-2.047.251-1.071 0-2.058-.229-2.965-.479-.302-.082-.606-.174-.912-.266-.954-.286-1.94-.582-2.975-.675-.534-.045-1.125.017-1.809.163v2.091c.102-.041.204-.082.303-.122.539-.127.973-.176 1.326-.14.833.074 1.681.329 2.579.599.321.096.641.191.958.279 1.042.285 2.187.549 3.494.549.888 0 1.764-.028 2.718-.366.46-.165.935-.337 1.394-.51.179-.067.711-.303 1.229-.543v-2.225C30.693 32.964 29.349 33.583 29.067 33.688zM29.067 29.688c-.45.17-.912.338-1.36.497-.654.232-1.287.251-2.047.251-1.071 0-2.058-.229-2.965-.479-.302-.082-.606-.174-.912-.266-.954-.286-1.94-.582-2.975-.675-.534-.045-1.125.016-1.809.162v2.092c.102-.041.204-.082.303-.122.539-.127.973-.176 1.326-.14.833.074 1.681.329 2.579.599.321.096.641.191.958.279 1.042.285 2.187.549 3.494.549.888 0 1.764-.028 2.718-.366.46-.165.935-.337 1.394-.51.179-.067.711-.303 1.229-.543v-2.225C30.693 28.964 29.349 29.583 29.067 29.688z"/></svg>