<svg xmlns="http://www.w3.org/2000/svg"  viewBox="0 0 48 48" width="48px" height="48px"><path fill="#FFEB3B" d="M34 4A8 8 0 1 0 34 20A8 8 0 1 0 34 4Z"/><path fill="#FFFDE7" d="M33 5H35V19H33z"/><path fill="#FFFDE7" d="M27 11H41V13H27z"/><path fill="#FFFDE7" d="M33 5H35V19H33z" transform="rotate(-45.001 34 12)"/><path fill="#FFFDE7" d="M33 5H35V19.000999999999998H33z" transform="rotate(-134.999 34 12)"/><path fill="#FFC107" d="M34,5.5c3.585,0,6.5,2.915,6.5,6.5c0,3.584-2.915,6.5-6.5,6.5c-3.584,0-6.5-2.916-6.5-6.5C27.5,8.415,30.416,5.5,34,5.5 M34,4c-4.419,0-8,3.581-8,8s3.581,8,8,8s8-3.581,8-8S38.419,4,34,4L34,4z"/><path fill="#FFB300" d="M29.853,17h1.464L35,12h-7.5C27.5,14.009,28.416,15.807,29.853,17z"/><g><path fill="#90CAF9" d="M20 28.531H22V42H20z"/><path fill="#90CAF9" d="M29 43c0 0-6.999-1-7-4 0-3-2.001-3-2 0 0 3-7 4-7 4-.553 0-1 .447-1 1l0 0h18l0 0C30 43.447 29.553 43 29 43zM7 12l3.684 5H27.76C26.661 15.63 26 13.894 26 12H7z"/></g><path fill="#FB8C00" d="M27.5,12H26c0,1.894,0.661,3.63,1.76,5h2.093C28.416,15.807,27.5,14.009,27.5,12z"/><path fill="#F50057" d="M9.947,16l9.619,13.055c0,0,1.323,2.074,2.895-0.037C24.031,26.906,32.053,16,32.053,16H9.947z"/></svg>