<svg xmlns="http://www.w3.org/2000/svg"  viewBox="0 0 48 48" width="48px" height="48px"><path fill="#78909c" d="M31,43H17c-1.925,0-3.5-1.575-3.5-3.5l0,0c0-1.925,1.575-3.5,3.5-3.5h14c1.925,0,3.5,1.575,3.5,3.5 l0,0C34.5,41.425,32.925,43,31,43z"/><path fill="#263238" d="M36,14c0-1.935-4-5.968-4-7H16c0,1.097-4,5.129-4,7s0,25,0,25h24C36,39,36,15.935,36,14z"/><path fill="#90a4ae" d="M34,41H14c-1.65,0-2-2-2-2h24C36,39,35.65,41,34,41z M33,6L33,6c0-0.552-0.448-1-1-1H16 c-0.552,0-1,0.448-1,1l0,0c0,0.552,0.448,1,1,1h16C32.552,7,33,6.552,33,6z"/><path fill="#546e7a" d="M12,20h24v10H12V20z"/><path fill="#546e7a" d="M24,17c-4.411,0-8,3.589-8,8s3.589,8,8,8s8-3.589,8-8S28.411,17,24,17z"/><polygon fill="#ffc107" points="28,24 25,24 26,18 20,26 23,26 22,32"/><path fill="#ff8f00" d="M26,18l-1,6h3l-6,8l1-6h-3L26,18 M27.661,14.119L25.2,17.4l-6,8L18,27h2h1.82l-0.806,4.836 l-0.674,4.045L22.8,32.6l6-8L30,23h-2h-1.82l0.806-4.836L27.661,14.119L27.661,14.119z"/></svg>