<svg xmlns="http://www.w3.org/2000/svg"  viewBox="0 0 48 48" width="48px" height="48px"><path fill="#4fc3f7" d="M25.244,13.241l-1.941-0.481l2.727-11c0.101-0.406,0.444-0.707,0.86-0.753l9-1l0.221,1.987	l-8.307,0.923L25.244,13.241z"/><path fill="#9fa8da" d="M31,45H17c-1.925,0-3.5-1.575-3.5-3.5l0,0c0-1.925,1.575-3.5,3.5-3.5h14c1.925,0,3.5,1.575,3.5,3.5	l0,0C34.5,43.425,32.925,45,31,45z"/><path fill="#d32f2f" d="M32,9H16c0,1.097-4,5.129-4,7c0,0.487,0,2.415,0,5l21,2l3-2c0-2.574,0-4.498,0-5 C36,14.065,32,10.032,32,9z"/><path fill="#d32f2f" d="M12,41h24c0,0,0-4.107,0-9l-20-2l-4,2C12,36.893,12,41,12,41z"/><path fill="#c5cae9" d="M34,43H14c-1.65,0-2-2-2-2h24C36,41,35.65,43,34,43z M33,8L33,8c0-0.552-0.448-1-1-1H16	c-0.552,0-1,0.448-1,1l0,0c0,0.552,0.448,1,1,1h16C32.552,9,33,8.552,33,8z"/><path fill="#ffd740" d="M36,21c0,0-3,1-6,1s-6-1-6-1s-3-1-6-1s-6,1-6,1v11c0,0,3-1,6-1s6,1,6,1s3,1,6,1s6-1,6-1V21z"/></svg>