<svg xmlns="http://www.w3.org/2000/svg"  viewBox="0 0 48 48" width="48px" height="48px"><path fill="#bcaaa4" d="M29.3 16.5c-.1-.2-1.2-1.9-1.2-3.5 0-1 .4-1.6.7-2 .2-.4.3-.6.3-1 0-.9-.6-2.1-.8-2.5L28 7.1 29.7 6 30 6.5c.1.2 1.1 1.9 1.1 3.5 0 1-.4 1.6-.6 2-.2.4-.4.6-.4 1 0 .9.6 2.1.9 2.5L29.3 16.5zM24.3 16.5c-.1-.2-1.2-1.9-1.2-3.5 0-1 .4-1.6.7-2 .2-.4.3-.6.3-1 0-.9-.6-2.1-.8-2.5L23 7.1 24.7 6 25 6.5c.1.2 1.1 1.9 1.1 3.5 0 1-.4 1.6-.6 2-.2.4-.4.6-.4 1 0 .9.6 2.1.9 2.5L24.3 16.5zM19.3 16.5c-.1-.2-1.2-1.9-1.2-3.5 0-1 .4-1.6.7-2 .2-.4.3-.6.3-1 0-.9-.6-2.1-.9-2.5L18 7.1 19.7 6 20 6.5c.1.2 1.1 1.9 1.1 3.5 0 1-.4 1.6-.6 2-.2.4-.4.6-.4 1 0 .9.6 2.1.9 2.5L19.3 16.5z"/><path fill="#f50057" d="M30,34c-0.3,0-0.7-0.2-0.9-0.5c-0.3-0.5-0.1-1.1,0.3-1.4c0.1,0,7.7-4.7,10.3-7.2 c2.1-2,2.3-3.1,2.2-3.6c-0.1-0.7-0.9-1.1-1.3-1.3c-1.3-0.5-3.3,1.2-4.9,2.6c-0.4,0.4-0.8,0.7-1.2,1c-0.4,0.3-1.1,0.3-1.4-0.1 c-0.3-0.4-0.3-1.1,0.1-1.4c0.4-0.3,0.7-0.6,1.1-1c2-1.8,4.5-4,7-3c1.4,0.6,2.3,1.6,2.5,2.7c0.3,1.6-0.6,3.4-2.8,5.4 c-2.8,2.6-10.3,7.2-10.7,7.4C30.4,34,30.2,34,30,34z"/><path fill="#f50057" d="M17.8,37h12.4c7-4.6,7.8-22,7.8-22H10C10,15,11.6,32.4,17.8,37z"/><path fill="#ad1457" d="M4.3,36c1.6,2.8,9.8,6,19.7,6s18.1-3.2,19.7-6H4.3z"/></svg>