<svg xmlns="http://www.w3.org/2000/svg"  viewBox="0 0 48 48" width="48px" height="48px"><path fill="#4dd0e1" d="M3 29L19 45 21 43 40 19 29 8 5 27z"/><path fill="#00bcd4" d="M11 37L19 45 22 42 40 19 34.5 13.5z"/><path fill="#fff" d="M22.933,19c0.936,0,1.9,0.416,2.759,1.277c0.383,0.383,0.668,0.777,0.861,1.17c0.393,0.193,0.786,0.476,1.171,0.86c1.676,1.676,1.669,3.745,0.17,5.245c-1.085,1.085-2.469,0.887-3.863,1.678C22.764,29.948,21.431,31,20.536,31c-0.231,0-0.432-0.07-0.596-0.233c-0.43-0.43-0.393-0.961,0.154-1.507c0.757-0.757,1.598-1.902,2.275-2.897c0.259-0.381-0.054-0.824-0.433-0.824c-0.096,0-0.198,0.029-0.295,0.095c-0.996,0.676-2.143,1.517-2.898,2.274c-0.3,0.3-0.596,0.447-0.873,0.447c-0.227,0-0.442-0.099-0.635-0.293c-0.798-0.798,0.634-2.497,1.537-4.089c0.791-1.395,0.593-2.778,1.679-3.862C21.177,19.377,22.043,19,22.933,19"/><path fill="#b2ebf2" d="M5,31l-1-1l2-2l1,1L5,31z M9,31l-1-1l-2,2l1,1L9,31z M10,32l-2,2l1,1l2-2L10,32z M12,34l-2,2l1,1l2-2L12,34z"/><path fill="#4dd0e1" d="M13,39l-1-1l2-2l1,1L13,39z M17,39l-1-1l-2,2l1,1L17,39z M18,40l-2,2l1,1l2-2L18,40z M20,42l-2,2l1,1l2-2L20,42z"/><path fill="#b2ebf2" d="M29 8L40 19 40 11 37 8z"/><path fill="#ff1744" d="M34 8L40 14 45 8 40 3z"/><path fill="#eceff1" d="M27.724,22.308c-0.384-0.384-0.777-0.667-1.17-0.86l-4.26,4.26c0.163,0.163,0.238,0.415,0.075,0.654c-0.676,0.996-1.518,2.141-2.274,2.897c-0.547,0.547-0.584,1.078-0.154,1.507C20.104,30.93,20.305,31,20.536,31c0.895,0,2.228-1.052,3.494-1.77c1.394-0.791,2.778-0.593,3.863-1.678C29.393,26.052,29.4,23.983,27.724,22.308z"/></svg>