<svg xmlns="http://www.w3.org/2000/svg"  viewBox="0 0 48 48" width="48px" height="48px"><path fill="#B3E5FC" d="M25.064 12A7 7 0 1 0 25.064 26A7 7 0 1 0 25.064 12Z"/><path fill="#B3E5FC" d="M16.064 16A6 6 0 1 0 16.064 28 6 6 0 1 0 16.064 16zM20.064 10A3 3 0 1 0 20.064 16 3 3 0 1 0 20.064 10zM10.064 6A2 2 0 1 0 10.064 10 2 2 0 1 0 10.064 6z"/><path fill="#689F38" d="M11.064 42L29.064 42 33.064 20 7.064 20z"/><path fill="#FFE082" d="M29.828,26.949c0,0-11.68,3.575-11.39,11.052C18.596,42.054,24.438,42,27.438,42s13.751,0,13.751,0s-7.361-1.003-7.167-5.999c0.077-1.979,1.897-3.878,0.111-6.887C33.268,27.656,29.828,26.949,29.828,26.949z"/><path fill="#FFC107" d="M34.021,36.001c0.077-1.979,2.114-4.018,0.111-6.887c-0.318-0.456-0.599-0.658-0.599-0.658c-0.001-0.002-2.094-1.017-2.095-1.019l-0.594-0.088c0,0-7.408,5.65-7.408,10.65c0,3,2.627,4,5.627,4c0.308,0,12.124,0,12.124,0S33.827,40.997,34.021,36.001z"/><path fill="#455A64" d="M7.381,37.179l13.342-12.425c0.416-0.364,0.458-0.996,0.095-1.411c-0.364-0.418-0.996-0.458-1.411-0.095L6.064,35.673L7.381,37.179z"/><path fill="#3F51B5" d="M39.122 6L29.828 26.949 33.534 28.456 42 6z"/></svg>