<svg xmlns="http://www.w3.org/2000/svg"  viewBox="0 0 48 48" width="48px" height="48px"><path fill="#FFCC80" d="M38,44V28c0-7.732-6.268-14-14-14s-14,6.268-14,14v16H38z"/><path fill="#F2A25A" d="M15,17c0.605,1.793,1.104,3.597,1.54,5.405c0.472,1.806,0.837,3.621,1.2,5.437l-0.048-0.24L17.747,28c0.267,1.924,1,3.665,2.11,4.811c1.11,1.145,2.498,1.701,4.143,1.69c1.644,0.007,3.03-0.55,4.139-1.693c1.105-1.146,1.841-2.885,2.107-4.808l0.057-0.412l-0.05,0.253c0.357-1.815,0.74-3.63,1.191-5.437C31.897,20.597,32.391,18.793,33,17c0.276,1.873,0.437,3.736,0.556,5.596c0.118,1.859,0.167,3.713,0.191,5.563L33.754,28c0.268,2.553-0.263,5.408-2.034,7.759c-0.87,1.17-2.069,2.157-3.432,2.8c-1.349,0.654-2.883,0.93-4.288,0.94c-1.426-0.017-2.928-0.284-4.286-0.943c-1.364-0.642-2.56-1.632-3.43-2.8c-1.767-2.352-2.299-5.204-2.031-7.756l0.007,0.158c0.03-1.852,0.063-3.703,0.2-5.563C14.563,20.736,14.729,18.873,15,17z"/><path fill="#F50057" d="M33,28c0,4.971-4.029,9-9,9l0,0c-4.971,0-9-4.029-9-9V8c0,0,0-4,4-4h10c4,0,4,4,4,4V28z"/><path fill="#FF80AB" d="M30,30V4.105C29.695,4.044,29.37,4,29,4h-4v29.941C26.913,33.729,29,32,30,30z"/></svg>