<svg xmlns="http://www.w3.org/2000/svg"  viewBox="0 0 48 48" width="48px" height="48px"><path fill="#FFD54F" d="M18 16H30V42H18z"/><path fill="#FFB300" d="M32,37c0,0.553-0.447,1-1,1H17c-0.553,0-1-0.447-1-1v-7c0-0.553,0.447-1,1-1h14c0.553,0,1,0.447,1,1V37z"/><path fill="#4E342E" d="M32,45c0,1.104-0.896,2-2,2H18c-1.104,0-2-0.896-2-2V34h16V45z"/><path fill="#F50057" d="M28,16h-8V8l5-7c0,0,3,3,3,6C28,12,28,16,28,16z"/><path fill="#FF4081" d="M28,16c0,0,0-4,0-9c0-3-3-6-3-6v15H28z"/><path fill="#8D6E63" d="M25 34H28V47H25z"/><path fill="#FFE082" d="M25 16H30V29H25z"/><path fill="#FFCA28" d="M25 29H28V34H25z"/></svg>