<svg xmlns="http://www.w3.org/2000/svg"  viewBox="0 0 48 48" width="48px" height="48px"><path fill="#bf360c" d="M38.979,42c0,0-5.412-1.804-9.923-1.804S19.134,42,19.134,42V31.175h19.846V42z"/><path fill="#ffa726" d="M20.036,27.567c0,1.993-1.616,3.608-3.608,3.608s-3.608-1.616-3.608-3.608s1.616-3.608,3.608-3.608	S20.036,25.574,20.036,27.567 M45.294,27.567c0,1.993-1.616,3.608-3.608,3.608s-3.608-1.616-3.608-3.608s1.616-3.608,3.608-3.608	S45.294,25.574,45.294,27.567"/><path fill="#ffb74d" d="M41.685,18.546c0-11.479-25.258-7.473-25.258,0v8.119c0,7.473,5.655,13.531,12.629,13.531	s12.629-6.058,12.629-13.531V18.546z"/><path fill="#784719" d="M36.273,25.763c0,0.997-0.807,1.804-1.804,1.804c-0.997,0-1.804-0.807-1.804-1.804	s0.807-1.804,1.804-1.804C35.466,23.958,36.273,24.766,36.273,25.763 M25.448,25.763c0,0.997-0.807,1.804-1.804,1.804	c-0.997,0-1.804-0.807-1.804-1.804s0.807-1.804,1.804-1.804C24.641,23.958,25.448,24.766,25.448,25.763"/><path fill="#ff5722" d="M29.056,5.917c-7.672,0-18.944,4.51-19.056,28.866L19.134,42V23.958l15.11-8.119l4.623,6.315	L38.979,42L48,34.783c0-10.825-0.49-26.16-13.531-26.16l-1.804-2.706H29.056z"/><path fill="#fb8c00" d="M24.546,33.881h9.021c0,0-1.804,2.706-4.51,2.706S24.546,33.881,24.546,33.881z"/><path fill="#757575" d="M3.48,14C1.56,14,0,15.56,0,17.48s1.56,3.48,3.48,3.48c0.16,0,0.32-0.01,0.48-0.04 C5,20.78,5.9,20.17,6.44,19.31c0.33-0.53,0.52-1.16,0.52-1.83C6.96,15.56,5.4,14,3.48,14z M1.75,17.52 c-0.05-0.46,0.08-0.9,0.38-1.24c0.3-0.35,0.75-0.54,1.22-0.54c0.97,0,1.75,0.66,1.85,1.58c0.07,0.5-0.09,1.01-0.41,1.38 c-0.3,0.33-0.7,0.52-1.13,0.52C2.72,19.22,1.86,18.46,1.75,17.52z"/><path fill="#757575" d="M13.69,24l-2.89,2.09c-0.03,0.02-0.15,0.09-0.35,0.21l-1.74-1.21c-0.06-0.04-0.1-0.1-0.14-0.16 C8.38,24.59,8.19,24.27,8,23.99c-1.24-1.78-2.64-2.5-4.04-3.07c-0.18-0.08-0.37-0.15-0.55-0.22h0.07c1.17,0,2.2-0.58,2.83-1.47 c0.05,0.03,0.09,0.05,0.13,0.08c0.1,0.05,0.18,0.1,0.2,0.11c0.63,0.35,2.92,1.73,3.81,2.27c0.2,0.12,0.32,0.19,0.35,0.21L13.69,24z"/><g><path fill="#bdbdbd" d="M6.44,28.69C5.9,27.83,5,27.22,3.96,27.08c-0.16-0.03-0.32-0.04-0.48-0.04 C1.56,27.04,0,28.6,0,30.52C0,32.44,1.56,34,3.48,34c1.92,0,3.48-1.56,3.48-3.48C6.96,29.85,6.77,29.22,6.44,28.69z M5.2,30.68 c-0.11,0.92-0.88,1.58-1.85,1.58c-0.47,0-0.92-0.2-1.22-0.54c-0.3-0.34-0.43-0.78-0.38-1.25c0.11-0.93,0.97-1.69,1.91-1.69 c0.43,0,0.83,0.18,1.13,0.52C5.11,29.67,5.27,30.17,5.2,30.68z"/><path fill="#bdbdbd" d="M23.08,16.45c-0.7-0.57-1.5-0.71-2.38-0.71c-1.62,0-2.93,0.83-2.98,0.87l-7.27,5.08l-1.74,1.22 c-0.05,0.04-0.1,0.09-0.14,0.15C8.38,23.4,8.19,23.71,8,23.99c-1.24,1.79-2.64,2.51-4.04,3.09c-0.18,0.07-0.37,0.15-0.55,0.22 c0.02,0,0.05-0.01,0.07-0.01c1.17,0,2.2,0.59,2.83,1.47c0.05-0.02,0.09-0.05,0.13-0.07c0.1-0.06,0.18-0.11,0.2-0.12 c0.63-0.34,2.92-1.72,3.81-2.27c0.2-0.12,0.32-0.19,0.35-0.21L13.69,24l9.79-7.1L23.08,16.45z M10.72,24.43 c-0.33,0-0.59-0.26-0.59-0.59c0-0.32,0.26-0.58,0.59-0.58c0.32,0,0.58,0.26,0.58,0.58C11.3,24.17,11.04,24.43,10.72,24.43z"/></g></svg>