<svg xmlns="http://www.w3.org/2000/svg"  viewBox="0 0 48 48" width="48px" height="48px"><path fill="#FF1744" d="M41.993,36v4.001c-4.998,2-10.996,2-12.995,2c-2.457,0-2.998-2-2.998-2c-4.999-17-16.994-21-19.993-23c0-8,4.998-11,4.998-11S24.001,24,28,27c3.999,3,6,0,6,0l5.994,3.001C39.994,30.001,42,31,42,34L41.993,36z"/><path fill="#D50000" d="M40.388,34.514C37.304,35.5,33.229,36,28.249,36c-1.313,0-2.066-1.374-2.072-1.374c-4.5-11.23-13.065-16.036-17.667-18.523c-0.806-0.436-2.362-1.29-2.362-1.29c-0.125,0.359-0.141,2.188-0.141,2.188s3.998,8,3.998,25h2v-17c0,0,0-3,2.999-2c0.239,0.08,0.444,0.174,0.658,0.265c2.35,2.032,4.705,4.644,6.668,8.036c-0.055-0.076-0.113-0.156-0.168-0.232c0.634,1.066,1.231,2.232,1.797,3.471c0.132,0.304,0.272,0.594,0.397,0.907c0.004,0.009,0.019,0.036,0.039,0.072c0.587,1.387,1.131,2.868,1.606,4.481c0,0,0.541,2,2.998,2c1.999,0,7.997,0,12.995-2v-6.233C41.993,33.768,42.265,33.917,40.388,34.514z"/><path fill="#37474F" d="M10.005 40.001H12.005V42.001H10.005z"/></svg>