<svg xmlns="http://www.w3.org/2000/svg"  viewBox="0 0 48 48" width="48px" height="48px"><path fill="#E0E0E0" d="M16 25H41V31H16z"/><path fill="#FF9800" d="M4 25H16V31H4z"/><path fill="#B0BEC5" d="M40,15h-2c0.6-0.5,1-1.2,1-2c0-1.7-1.8-3-4-3c-0.1,0-0.3,0-0.4,0C35.5,9.4,36,8.5,36,7.5C36,5.6,34,4,31.5,4C29,4,27,5.6,27,7.5c0,0.7,0.3,1.3,0.7,1.8c-1.6,0.5-2.7,1.8-2.7,3.2c0,1.9,2,3.5,4.5,3.5c0,0,0,0,0,0c-0.3,0.4-0.5,0.9-0.5,1.5c0,1.3,1.4,2.4,7,2.5c0.1,0,0.2,0,0.3,0c5.2,0,5.7,2,5.7,6c0,0,0,5,1,1s1-8,1-8C44,16.8,42.2,15,40,15z"/><path fill="#795548" d="M43,25h-2v6h2c0.6,0,1-0.4,1-1v-4C44,25.4,43.6,25,43,25z"/></svg>