<svg xmlns="http://www.w3.org/2000/svg"  viewBox="0 0 48 48" width="48px" height="48px"><path fill="#f44336" d="M10 19c0 0 0 4.8 1 7s3.2 3 6 3h16c2.8 0 5-.8 6-3s1-7 1-7H10zM39.9 18.5c-1.4-2.1-1.7-3.6-1.7-6.2l-.6-.9c-2.3-.6-4-2.1-4.7-4.6L32 6c-2.5.2-5.1-.4-7-2v15h15L39.9 18.5z"/><path fill="#455a64" d="M17,29h16c2.8,0,5-0.8,6-3H11C12,28.3,14.2,29,17,29z"/><path fill="#37474f" d="M33,38c0,1.7-1.3,3-3,3h-9c0,0,0-1.3,0-3v-1h12V38z"/><path fill="#dd2c00" d="M25,20c-0.1,0-0.2,0-0.3,0c-0.4-0.1-0.7-0.5-0.7-1V5c0-0.6,0.4-1,1-1c0.6,0,1,0.4,1,1v10.3l5.1-8.8 c0.3-0.5,0.9-0.6,1.4-0.4c0.5,0.3,0.6,0.9,0.4,1.4l-6.9,12C25.7,19.8,25.4,20,25,20z"/><path fill="#dd2c00" d="M39,20H25c-0.5,0-0.9-0.3-1-0.8c-0.1-0.4,0.1-0.9,0.5-1.1l12.2-6.7c0.5-0.3,1.1-0.1,1.4,0.4 c0.3,0.5,0.1,1.1-0.4,1.4L28.9,18H39c0.6,0,1,0.4,1,1S39.6,20,39,20z"/><path fill="#cfd8dc" d="M13,38h8v2h-8V38z"/><path fill="#cfd8dc" d="M16,35h2v8h-2V35z"/><path fill="#b0bec5" d="M21.2 8H23.2V42.4H21.2z" transform="rotate(-45.001 22.15 25.15)"/><path fill="#b0bec5" d="M20,37c-0.2,0-0.5-0.1-0.7-0.3c-0.4-0.4-0.4-1,0-1.4l6.4-6.6c0.4-0.4,1-0.4,1.4,0s0.4,1,0,1.4 l-6.4,6.6C20.5,36.9,20.3,37,20,37z"/><path fill="#cfd8dc" d="M36,40c0,1.7-1.3,3-3,3s-3-1.3-3-3s1.3-3,3-3S36,38.3,36,40z"/><path fill="#607d8b" d="M33 44c-2.2 0-4-1.8-4-4s1.8-4 4-4 4 1.8 4 4S35.2 44 33 44zM33 38c-1.1 0-2 .9-2 2s.9 2 2 2 2-.9 2-2S34.1 38 33 38zM17 44c-2.8 0-5-2.2-5-5s2.2-5 5-5 5 2.2 5 5S19.8 44 17 44zM17 36c-1.7 0-3 1.3-3 3s1.3 3 3 3 3-1.3 3-3S18.7 36 17 36z"/><path fill="#455a64" d="M10.5 12.4H12.5V16.6H10.5z" transform="rotate(-45.001 11.5 14.5)"/><path fill="#455a64" d="M11 13c0 .6-.4 1-1 1s-1-.4-1-1 .4-1 1-1S11 12.4 11 13zM34 40c0 .6-.4 1-1 1s-1-.4-1-1 .4-1 1-1S34 39.4 34 40zM18 39c0 .6-.4 1-1 1s-1-.4-1-1 .4-1 1-1S18 38.4 18 39z"/></svg>