<svg xmlns="http://www.w3.org/2000/svg"  viewBox="0 0 48 48" width="48px" height="48px"><path fill="#FFCA28" d="M24,45c-9.9,0-18-8.1-18-18S14.1,9,24,9s18,8.1,18,18S33.9,45,24,45z M24,13c-7.7,0-14,6.3-14,14s6.3,14,14,14s14-6.3,14-14S31.7,13,24,13z"/><path fill="#1976D2" d="M17 7L21 4 27 4 31 7 25 13 23 13z"/><path fill="#0D47A1" d="M27 7L31 7 25 13z"/><path fill="#84FFFF" d="M17 7L21 7 21 4z"/><path fill="#0091EA" d="M27 7L27 4 21 4 21 7 23 13 25 13z"/><path fill="#00E5FF" d="M17 7L21 7 23 13z"/><path fill="#00B0FF" d="M21 7L24 4 27 7z"/><path fill="#FFB300" d="M27.4,13.4C26.3,13.2,25.2,13,24,13h1l3.4-3.4c0.7,0.2,1.4,0.4,2.1,0.7L27.4,13.4z M24,13h-1l-3.4-3.4c-0.7,0.2-1.4,0.4-2.1,0.7l3.2,3.2C21.7,13.2,22.8,13,24,13z M39.1,27.1c-0.1-1.7-0.5-3-0.9-4.2c-0.5-1.2-1-2.1-1.5-2.9c-0.5-0.7-1-1.2-1.3-1.6c-0.3-0.3-0.5-0.5-0.5-0.5L34.7,18c2,2.4,3.3,5.6,3.3,9c0,7.7-6.3,14-14,14s-14-6.3-14-14c0-3.3,1.1-6.3,3-8.7l-0.1-0.1c0,0-0.2,0.2-0.5,0.5c-0.3,0.3-0.8,0.9-1.3,1.6c-0.5,0.8-1,1.7-1.4,2.9c-0.2,0.6-0.4,1.3-0.5,2C9.1,25.6,9.1,26,9,26.4c0,0.2,0,0.4,0,0.5c0,0.2,0,0.4,0,0.6c-0.1,1.6,0.1,3.4,0.8,5.1c0.6,1.8,1.6,3.5,3,5.1c1.4,1.5,3.1,2.9,5.1,3.7c0.5,0.2,1,0.4,1.5,0.6c0.5,0.1,1.1,0.3,1.6,0.4c0.6,0.1,1.2,0.2,1.7,0.2l0.7,0l0.4,0l0.1,0l0,0l0.1,0l0,0l0.2,0c2.2,0,4.4-0.6,6.4-1.5c2-0.9,3.7-2.3,5-3.9c1.3-1.6,2.3-3.4,2.8-5.1l0.2-0.7l0.1-0.7c0.1-0.4,0.2-0.9,0.2-1.3c0-0.4,0.1-0.9,0.1-1.3C39.1,27.9,39.1,27.5,39.1,27.1z"/></svg>