<svg xmlns="http://www.w3.org/2000/svg"  viewBox="0 0 48 48" width="48px" height="48px"><path fill="#ef6c00" d="M39,5c0,0-10.2,0-10.5,0S28,5.2,28,5.5S28.2,6,28.5,6s9,1,9,1C37.8,7,38,7.2,38,7.5S37.8,8,37.5,8 c0,0-8.7,1-9,1S28,9.2,28,9.5s0.2,0.5,0.5,0.5s9,1,9,1c0.3,0,0.5,0.2,0.5,0.5S37.8,12,37.5,12c0,0-8.7,1-9,1S28,13.2,28,13.5 s0.2,0.5,0.5,0.5s9,1,9,1c0.3,0,0.5,0.2,0.5,0.5S37.8,16,37.5,16c0,0-8.7,1-9,1S28,17.2,28,17.5s0.2,0.5,0.5,0.5s9,1,9,1 c0.3,0,0.5,0.2,0.5,0.5S37.8,20,37.5,20c0,0-8.7,1-9,1S28,21.2,28,21.5s0.2,0.5,0.5,0.5s9,1,9,1c0.3,0,0.5,0.2,0.5,0.5 S37.8,24,37.5,24c0,0-8.7,1-9,1S28,25.2,28,25.5s0.2,0.5,0.5,0.5c0.2,0,8.5,1,8.5,1v13.6h5c0,0,0-29.6,0-32.6S39,5,39,5z"/><path fill="#ef6c00" d="M42,40.5c0,1.4-1.1,2.5-2.5,2.5S37,41.9,37,40.5s1.1-2.5,2.5-2.5S42,39.1,42,40.5z"/><path fill="#7986cb" d="M11,43c-2.8,0-5-2.2-5-5s2.2-5,5-5s5,2.2,5,5S13.8,43,11,43z M11,35c-1.7,0-3,1.3-3,3s1.3,3,3,3 s3-1.3,3-3S12.7,35,11,35z"/><path fill="#7986cb" d="M21,27c0,0,0,2-2,2s-3,8-3,9s-2,0-2,0l1-11H21z"/><path fill="#9fa8da" d="M25 43c-2.8 0-5-2.2-5-5s2.2-5 5-5 5 2.2 5 5S27.8 43 25 43zM25 35c-1.7 0-3 1.3-3 3s1.3 3 3 3 3-1.3 3-3S26.7 35 25 35zM18 5c-2 0-3 22-3 22h6C21 27 20 5 18 5z"/><path fill="#9fa8da" d="M15,27c0,0,0,2,2,2s3,8,3,9s2,0,2,0l-1-11H15z"/><path fill="#5c6bc0" d="M19,26c0,0.6-0.4,1-1,1s-1-0.4-1-1s0.4-1,1-1S19,25.4,19,26z"/></svg>