<svg xmlns="http://www.w3.org/2000/svg"  viewBox="0 0 48 48" width="48px" height="48px"><path fill="#FFEB3B" d="M29,12c0,0.552-0.447,1-1,1h-8c-0.552,0-1-0.448-1-1V9c0-0.552,0.448-1,1-1h8c0.553,0,1,0.448,1,1V12z"/><path fill="#455A64" d="M19 10H21V12H19zM21 8H23V10H21zM23 10H25V12H23zM25 8H27V10H25zM27 10H29V12H27z"/><path fill="#795548" d="M11 32c0-.553-.447-1-1-1H6c-.553 0-1 .447-1 1v6c0 .553.447 1 1 1h4c.553 0 1-.447 1-1V32zM43 32c0-.553-.447-1-1-1h-4c-.553 0-1 .447-1 1v6c0 .553.447 1 1 1h4c.553 0 1-.447 1-1V32z"/><g><path fill="#FFC107" d="M44,22h-3.889c0,0-3.829-7.51-4.111-8c-0.56-0.973-1-2-3-2s-4.999,0-9,0c-3.919,0-7,0-9,0s-2.359,1-3,2c-0.356,0.557-4.13,8-4.13,8H4c-0.553,0-1,0.447-1,1v2c0,0.553,0.447,1,1,1h3h1h32h1h3c0.553,0,1-0.447,1-1v-2C45,22.447,44.553,22,44,22z"/><path fill="#FFC107" d="M41,23c0,0-9-1-17-1S7,23,7,23c-1.104,0-2,1.896-2,3v8c0,0.553,0.447,1,1,1h36c0.553,0,1-0.447,1-1v-8C43,24.896,42.104,23,41,23z"/></g><path fill="#546E7A" d="M24,22c5.271,0,10.96,0.433,14.239,0.729c-1.458-2.858-3.752-7.34-3.975-7.735l-0.114-0.201C33.702,14,33.702,14,33,14c-1.875,0-5.999,0-9,0c-2.984,0-7.122,0-9,0c-0.654,0-0.654,0-1.086,0.709c-0.075,0.122-0.15,0.246-0.229,0.37c-0.255,0.424-2.207,4.229-3.942,7.652C13.018,22.435,18.719,22,24,22z"/><path fill="#37474F" d="M41,30c0,0.553-0.447,1-1,1H8c-0.553,0-1-0.447-1-1v-3c0-0.553,0.447-1,1-1h32c0.553,0,1,0.447,1,1V30z"/><g><path fill="#4DD0E1" d="M9.5 27A1.5 1.5 0 1 0 9.5 30 1.5 1.5 0 1 0 9.5 27zM38.5 27A1.5 1.5 0 1 0 38.5 30 1.5 1.5 0 1 0 38.5 27z"/></g></svg>