<svg xmlns="http://www.w3.org/2000/svg"  viewBox="0 0 48 48" width="48px" height="48px"><path fill="#455A64" d="M12,45l4.7-8.5l1.7,1L14.3,45H12z M36,45l-4.7-8.5l-1.7,1l4.2,7.5H36z"/><path fill="#B0BEC5" d="M40,38c0,0,0,2-2,2c-7.7,0-20.3,0-28,0c-2,0-2-2-2-2V10c0-2.4,1.5-4.6,3.8-5.4L15,3.4C15.7,3.1,16.4,3,17,3H31c0.7,0,1.4,0.1,2,0.4l3.3,1.2c2.3,0.8,3.8,3,3.8,5.4V38z"/><path fill="#37474F" d="M36.2,4.6L33,3.4C32.3,3.1,31.6,3,31,3H17c-0.7,0-1.4,0.1-2,0.4l-3.3,1.2c-0.6,0.2-1.2,0.6-1.6,1l0.7,15.9c0.1,3.3,2.4,6.2,5.6,7.2c4.6,1.6,11,2,15.3,0c3.4-1.5,5.4-3.9,5.6-7.2l0.7-15.9C37.4,5.2,36.9,4.8,36.2,4.6z"/><path fill="#455A64" d="M40,29c0,0-5.7,4-10,4c-4.3,0-7.3,0-12,0c-4.7,0-10-4-10-4v8h10v3h12v-3h10V29z"/><path fill="#212121" d="M18 35H30V38H18z"/><path fill="#FFF9C4" d="M12,34.5c0,0.8-0.7,1.5-1.5,1.5S9,35.3,9,34.5S9.7,33,10.5,33S12,33.7,12,34.5z M37.5,33c-0.8,0-1.5,0.7-1.5,1.5s0.7,1.5,1.5,1.5s1.5-0.7,1.5-1.5S38.3,33,37.5,33z"/><path d="M15.7,5.2l-3.3,1.2c-0.1,0-0.2,0.1-0.3,0.1L12.3,9h23.5l0.1-2.4c-0.1,0-0.2-0.1-0.3-0.1l-3.3-1.2C31.9,5.1,31.4,5,31,5H17C16.6,5,16.1,5.1,15.7,5.2z"/><path d="M15.7,5.2l-3.3,1.2c-0.1,0-0.2,0.1-0.3,0.1L12.3,9h23.5l0.1-2.4c-0.1,0-0.2-0.1-0.3-0.1l-3.3-1.2C31.9,5.1,31.4,5,31,5H17C16.6,5,16.1,5.1,15.7,5.2z"/><path fill="#546E7A" d="M19,11h10v16.4c-1.3,0.3-2.8,0.5-4.4,0.5c-1.8,0-3.8-0.2-5.6-0.7V11z M31,11v15.7c3.7-1.7,4.2-3.9,4.2-5.4L35.7,11H31z M17,11h-4.7l0.4,10.3c0.1,2.5,1.8,4.6,4.1,5.4l0,0l0,0c0,0,0,0,0,0V11z"/><path fill="#FF6D00" d="M19 6H29V8H19z"/></svg>